<svg width="22" height="21" viewBox="0 0 22 21" fill="none" xmlns="http://www.w3.org/2000/svg">
<path d="M9.27893 3.00694L8.59379 1.80796C8.33687 1.37975 7.82302 1.20847 7.39481 1.46539L5.16813 2.75001C4.73992 3.00694 4.65428 3.52079 4.91121 3.94899L5.59634 5.23362C5.76762 5.49054 5.68198 5.83311 5.5107 6.17567C5.08249 6.68952 4.73992 7.28901 4.483 7.97415C4.31172 8.31671 4.05479 8.48799 3.62658 8.48799H2.25632C1.74247 8.48799 1.3999 8.83056 1.3999 9.34441V11.9137C1.3999 12.4275 1.74247 12.7701 2.25632 12.7701H3.62658C3.96915 12.7701 4.31172 13.027 4.39736 13.3696C4.65428 14.0547 4.99685 14.6542 5.42506 15.168C5.68198 15.425 5.68198 15.8532 5.5107 16.1101L4.82557 17.3947C4.56864 17.8229 4.73992 18.3368 5.16813 18.5937L7.39481 19.8783C7.82302 20.1352 8.33687 19.964 8.59379 19.5358L9.27893 18.3368C9.45021 18.0798 9.79278 17.8229 10.1353 17.9086C10.4779 17.9942 10.8205 17.9942 11.2487 17.9942C11.6769 17.9942 12.0195 17.9942 12.362 17.9086C12.7046 17.8229 13.0472 17.9942 13.2184 18.3368L13.9036 19.5358C14.1605 19.964 14.6743 20.0496 15.1026 19.8783L17.3292 18.5937C17.7574 18.3368 17.8431 17.8229 17.6718 17.3947L16.9867 16.1101C16.8154 15.7675 16.8154 15.425 17.0723 15.168C17.5005 14.6542 17.8431 14.0547 18.1 13.3696C18.2713 13.027 18.5282 12.7701 18.8708 12.7701H20.3267C20.8405 12.7701 21.1831 12.4275 21.1831 11.9137V9.34441C21.1831 8.83056 20.8405 8.48799 20.3267 8.48799H18.8708C18.5282 8.48799 18.1856 8.23107 18.1 7.8885C17.8431 7.20337 17.5005 6.60388 17.0723 6.09003C16.8154 5.83311 16.8154 5.4049 16.9867 5.14798L17.6718 3.86335C17.9287 3.43514 17.7574 2.9213 17.3292 2.66437L15.1026 1.37975C14.6743 1.12282 14.1605 1.29411 13.9036 1.72231L13.2184 2.9213C13.0472 3.17822 12.7046 3.43514 12.362 3.3495C12.0195 3.26386 11.6769 3.26386 11.2487 3.26386C10.8205 3.26386 10.4779 3.26386 10.1353 3.3495C9.79278 3.52079 9.45021 3.3495 9.27893 3.00694Z" stroke="white" stroke-width="1.2" stroke-miterlimit="10" stroke-linecap="round" stroke-linejoin="round"/>
<path d="M11.2485 14.0548C13.1405 14.0548 14.6742 12.5211 14.6742 10.6292C14.6742 8.73721 13.1405 7.20349 11.2485 7.20349C9.3566 7.20349 7.82288 8.73721 7.82288 10.6292C7.82288 12.5211 9.3566 14.0548 11.2485 14.0548Z" stroke="white" stroke-width="1.2" stroke-miterlimit="10" stroke-linecap="round" stroke-linejoin="round"/>
</svg>
