<svg width="108" height="25" viewBox="0 0 108 25" fill="none" xmlns="http://www.w3.org/2000/svg">
<path d="M43.3823 9.40269C43.2872 9.45997 43.1741 9.47988 43.065 9.45851C42.9559 9.43714 42.8588 9.37604 42.7927 9.2872C42.4679 8.82402 42.0322 8.44849 41.5247 8.19452C41.0173 7.94055 40.4542 7.81614 39.8862 7.83251C37.6718 7.83251 36.3126 9.57318 36.3126 12.0591C36.3126 14.5451 37.6967 16.3189 39.9111 16.3189C40.4866 16.3325 41.0562 16.2 41.5658 15.9339C42.0754 15.6678 42.5081 15.2768 42.8231 14.7981C42.8861 14.7081 42.9808 14.6449 43.0885 14.6209C43.1961 14.597 43.3089 14.6141 43.4045 14.6689L44.4564 15.2739C44.5138 15.3028 44.5643 15.3437 44.6044 15.3938C44.6446 15.4438 44.6733 15.5019 44.6888 15.564C44.7043 15.6261 44.7062 15.6908 44.6942 15.7537C44.6823 15.8166 44.6568 15.8761 44.6196 15.9284C44.1054 16.6941 43.4039 17.3176 42.5808 17.7403C41.7578 18.1631 40.8401 18.3714 39.9139 18.3455C36.3735 18.3455 33.9735 15.7937 33.9735 12.073C33.9735 8.35234 36.3735 5.83325 39.8613 5.83325C40.7721 5.80813 41.6752 6.00505 42.4916 6.40677C43.3081 6.80849 44.0131 7.4028 44.5449 8.13772C44.5815 8.1872 44.6075 8.24362 44.6212 8.30349C44.6349 8.36336 44.6361 8.42539 44.6247 8.48573C44.6133 8.54607 44.5895 8.60344 44.5548 8.65426C44.5201 8.70509 44.4753 8.74829 44.4231 8.78118L43.3823 9.40269Z" fill="white"/>
<path fill-rule="evenodd" clip-rule="evenodd" d="M51.1899 17.2025V17.7065C51.1899 17.7657 51.2022 17.8243 51.226 17.8788C51.2499 17.9332 51.2848 17.9824 51.3287 18.0234C51.3725 18.0644 51.4245 18.0962 51.4813 18.1171C51.5382 18.138 51.5988 18.1474 51.6595 18.1449H52.8349C52.894 18.1449 52.9525 18.1335 53.007 18.1115C53.0616 18.0895 53.1112 18.0572 53.153 18.0165C53.1948 17.9758 53.2279 17.9275 53.2505 17.8743C53.2731 17.8211 53.2848 17.7641 53.2848 17.7065V11.9809C53.2848 9.90708 51.7721 9.04962 49.6294 9.04962C48.425 9.05233 47.2396 9.34201 46.1765 9.8934C46.0749 9.94849 45.999 10.0395 45.9645 10.1476C45.9299 10.2557 45.9394 10.3726 45.9909 10.4742L46.3761 11.2577C46.4025 11.3103 46.4396 11.3571 46.4852 11.3953C46.5307 11.4335 46.5837 11.4623 46.641 11.48C46.6983 11.4977 46.7587 11.5038 46.8185 11.4981C46.8784 11.4924 46.9364 11.4749 46.9891 11.4467C47.7481 11.0624 48.5885 10.8551 49.4438 10.8413C50.189 10.8413 51.0691 11.0414 51.0691 11.7837C51.0691 12.5603 50.1063 12.6927 48.9184 12.856C48.8226 12.8692 48.7269 12.8825 48.6312 12.8959C47.4053 13.0631 45.4172 13.4356 45.4172 15.6081C45.4172 17.3532 46.7135 18.3476 48.5806 18.3476C49.8431 18.3476 50.6276 17.9093 51.1899 17.2025ZM49.3472 14.2501C50.0573 14.1286 50.7012 14.0186 51.0691 13.748V14.7671C51.0691 16.0985 50.0849 16.6711 49.0304 16.6711C48.1813 16.6711 47.5936 16.3012 47.5936 15.5095C47.5936 14.6492 48.2685 14.4383 49.0811 14.2959C49.1705 14.2802 49.2593 14.265 49.3472 14.25V14.2501Z" fill="white"/>
<path d="M55.0655 15.8031C55.1399 15.7151 55.2451 15.6599 55.3589 15.6489C55.4727 15.638 55.5863 15.6722 55.6757 15.7443C56.4139 16.3095 57.3188 16.6055 58.2436 16.5841C59.1961 16.5841 59.9002 16.2734 59.9002 15.5175C59.9002 14.8288 59.2541 14.6917 57.6914 14.4145C56.0347 14.1345 54.4498 13.5746 54.4498 11.6598C54.4498 9.66371 56.1479 8.8212 58.0834 8.8212C59.2972 8.80296 60.482 9.19711 61.4492 9.94086C61.4964 9.97833 61.5356 10.0251 61.5644 10.0785C61.5932 10.1318 61.6109 10.1905 61.6166 10.251C61.6223 10.3115 61.6158 10.3725 61.5974 10.4304C61.5791 10.4882 61.5493 10.5417 61.51 10.5875L60.9577 11.2454C60.8845 11.3337 60.7808 11.3901 60.6678 11.4032C60.5548 11.4162 60.4412 11.3848 60.3503 11.3155C59.6699 10.8109 58.8463 10.5436 58.0033 10.554C57.1888 10.554 56.4765 10.7948 56.4765 11.447C56.4765 12.1721 57.476 12.3093 58.4782 12.4828C60.6181 12.8608 61.9766 13.4795 61.9766 15.2824C61.9766 17.1748 60.4828 18.345 58.1111 18.345C56.8147 18.3852 55.5452 17.9654 54.5216 17.158C54.4757 17.1199 54.4377 17.0729 54.4099 17.0197C54.382 16.9666 54.3649 16.9083 54.3595 16.8484C54.3541 16.7885 54.3605 16.7281 54.3784 16.6707C54.3963 16.6133 54.4252 16.5601 54.4636 16.5142L55.0655 15.8031ZM63.2882 17.6731V6.27906C63.2882 6.22024 63.2996 6.16199 63.3218 6.10764C63.344 6.0533 63.3765 6.00392 63.4175 5.96232C63.4585 5.92072 63.5072 5.88773 63.5608 5.86522C63.6144 5.8427 63.6719 5.83112 63.7299 5.83112H65.0028C65.2468 5.83112 65.4446 6.03168 65.4446 6.27906V10.1704C65.7615 9.74161 66.175 9.39591 66.6505 9.16214C67.126 8.92836 67.6498 8.8133 68.1781 8.82657C70.0612 8.82657 71.1656 10.1871 71.1656 12.13V17.6731C71.1656 17.7319 71.1542 17.7901 71.132 17.8445C71.1098 17.8988 71.0773 17.9482 71.0363 17.9898C70.9952 18.0314 70.9465 18.0644 70.8929 18.0869C70.8393 18.1094 70.7819 18.121 70.7239 18.121H69.451C69.3338 18.121 69.2214 18.0738 69.1386 17.9898C69.0557 17.9058 69.0092 17.7919 69.0092 17.6731V12.634C69.0092 11.6681 68.7027 10.7919 67.4823 10.7919C66.3254 10.7919 65.4446 11.6178 65.4446 12.9951V17.6758C65.4446 17.7946 65.3981 17.9086 65.3152 17.9926C65.2323 18.0766 65.12 18.1238 65.0028 18.1238H63.7299C63.6715 18.1241 63.6137 18.1127 63.5598 18.0902C63.5058 18.0676 63.4569 18.0344 63.4157 17.9924C63.3746 17.9504 63.3422 17.9006 63.3203 17.8458C63.2983 17.7909 63.2874 17.7322 63.2882 17.6731Z" fill="white"/>
<path fill-rule="evenodd" clip-rule="evenodd" d="M84.4308 15.1332L85.347 17.8973C85.3747 17.9872 85.4292 18.0661 85.5029 18.1227C85.5766 18.1794 85.6658 18.211 85.758 18.2132H87.3343C87.4055 18.2135 87.4756 18.1962 87.5388 18.1628C87.602 18.1294 87.6563 18.0808 87.6971 18.0212C87.7382 17.9617 87.7645 17.8929 87.7739 17.8208C87.7832 17.7486 87.7753 17.6751 87.7508 17.6068L83.5971 6.12732C83.5653 6.04065 83.5084 5.96591 83.434 5.91302C83.3596 5.86013 83.2713 5.83158 83.1807 5.83115H81.1412C81.0524 5.83008 80.9654 5.85644 80.8915 5.90677C80.8176 5.9571 80.7603 6.02907 80.7271 6.11324L76.5567 17.5955C76.5323 17.6636 76.5243 17.7368 76.5335 17.8087C76.5426 17.8806 76.5686 17.9493 76.6092 18.0088C76.6498 18.0683 76.7039 18.1169 76.7668 18.1505C76.8297 18.1841 76.8996 18.2018 76.9706 18.2019H78.4634C78.5554 18.2022 78.6452 18.173 78.7201 18.1183C78.7949 18.0637 78.8511 17.9863 78.8807 17.8973L79.7992 15.1332H84.4308ZM80.3573 13.2068L82.1399 7.83094L83.854 13.2068H80.3573ZM90.9494 10.2086V9.49781C90.9525 9.43666 90.9433 9.37549 90.9225 9.3181C90.9016 9.2607 90.8694 9.20828 90.8279 9.16409C90.7867 9.11979 90.737 9.08454 90.682 9.06047C90.627 9.0364 90.5678 9.02401 90.508 9.02407H89.2353C88.9916 9.02407 88.7939 9.22614 88.7939 9.4753V20.7573C88.7939 21.0065 88.9916 21.2086 89.2353 21.2086H90.508C90.7516 21.2086 90.9494 21.0065 90.9494 20.7573V17.0145C91.2608 17.4616 91.6761 17.8225 92.1579 18.0647C92.6398 18.307 93.173 18.4229 93.7096 18.4021C96.1516 18.4021 97.7302 16.3123 97.7302 13.6073C97.7302 10.9025 96.1516 8.83784 93.7096 8.83784C93.1746 8.81571 92.6425 8.92931 92.1608 9.1685C91.6792 9.40769 91.263 9.76502 90.9494 10.2086ZM95.4642 13.6073C95.4642 15.1841 94.7496 16.4871 93.2566 16.4871C91.7363 16.4871 90.9494 15.1868 90.9494 13.6073C90.9494 12.0278 91.7776 10.7614 93.2566 10.7614C94.7356 10.7614 95.4642 12.0307 95.4642 13.6073ZM101.216 10.2085V9.49773C101.219 9.43654 101.211 9.37527 101.19 9.31771C101.169 9.26015 101.137 9.20752 101.096 9.16305C101.055 9.11866 101.005 9.08341 100.949 9.05948C100.894 9.03555 100.835 9.02345 100.775 9.02391H99.5019C99.3848 9.02396 99.2726 9.07151 99.1898 9.15613C99.107 9.24075 99.0605 9.35549 99.0605 9.47514V20.7573C99.0605 21.0065 99.2583 21.2084 99.5019 21.2084H100.775C101.018 21.2084 101.216 21.0065 101.216 20.7572V17.0143C101.528 17.461 101.943 17.8216 102.425 18.0638C102.907 18.306 103.44 18.4222 103.976 18.4021C106.421 18.4021 108 16.3121 108 13.6072C108 10.9024 106.421 8.83776 103.976 8.83776C103.441 8.81611 102.909 8.92991 102.428 9.16906C101.946 9.40821 101.53 9.76529 101.216 10.2085ZM105.734 13.6072C105.734 15.1839 105.019 16.487 103.526 16.487C102.014 16.487 101.216 15.1867 101.216 13.6072C101.216 12.0277 102.047 10.7613 103.526 10.7613C105.005 10.7613 105.734 12.0305 105.734 13.6072Z" fill="white"/>
<path fill-rule="evenodd" clip-rule="evenodd" d="M15.593 0.109253C18.009 0.109253 19.1976 0.109253 20.5026 0.519472C21.2029 0.773189 21.8389 1.17782 22.3655 1.70473C22.8922 2.23163 23.2966 2.86793 23.5502 3.56856C23.9603 4.86309 23.9603 6.06334 23.9603 8.4693V15.7095C23.9603 18.1128 23.9603 19.3129 23.5502 20.6102C23.2966 21.3108 22.8922 21.9471 22.3655 22.474C21.8389 23.0009 21.2029 23.4056 20.5026 23.6593C19.2086 24.0695 18.009 24.0695 15.6041 24.0695H8.34508C5.94296 24.0695 4.74335 24.0695 3.44661 23.6593C2.7463 23.4056 2.1103 23.0009 1.58364 22.474C1.05698 21.9471 0.652532 21.3108 0.398933 20.6102C0 19.3157 0 18.1265 0 15.7095V8.45827C0 6.05497 0 4.85488 0.410029 3.55746C0.66362 2.85682 1.06806 2.22052 1.59473 1.69362C2.12139 1.16671 2.75739 0.762078 3.4577 0.50837C4.74054 0.109253 5.94296 0.109253 8.34516 0.109253H15.593Z" fill="#00D54B"/>
<path d="M12.588 7.89911C13.7609 7.90096 14.8953 8.32659 15.7906 9.10072C15.8831 9.18632 16.0041 9.23254 16.1288 9.22992C16.2535 9.22731 16.3726 9.17604 16.4615 9.08664L17.3836 8.14169C17.4299 8.09482 17.4661 8.03867 17.4901 7.97679C17.5141 7.9149 17.5253 7.84861 17.5229 7.78209C17.5206 7.71557 17.5048 7.65027 17.4766 7.59029C17.4483 7.53032 17.4082 7.47697 17.3588 7.4336C16.6346 6.80416 15.7971 6.32512 14.8933 6.0233L15.1695 4.63258C15.1838 4.56111 15.1823 4.48728 15.1652 4.41645C15.1481 4.34562 15.1158 4.27958 15.0706 4.22312C15.0254 4.16666 14.9684 4.1212 14.9038 4.09005C14.8393 4.0589 14.7687 4.04284 14.6973 4.04303H12.9221C12.8121 4.04292 12.7054 4.08117 12.6195 4.15145C12.5337 4.22172 12.4739 4.31983 12.45 4.42954L12.2015 5.67347C9.83821 5.79202 7.83382 6.98798 7.83382 9.43925C7.83382 11.5576 9.49036 12.4688 11.2407 13.1063C12.8972 13.7353 13.7752 13.9695 13.7752 14.8552C13.7752 15.7409 12.9 16.2994 11.6107 16.2994C10.3595 16.3198 9.15062 15.8366 8.24521 14.954C8.15536 14.8637 8.0344 14.8131 7.90838 14.8131C7.78237 14.8131 7.6614 14.8637 7.57155 14.954L6.58314 15.9411C6.53697 15.9866 6.50024 16.0412 6.47515 16.1015C6.45006 16.1619 6.43713 16.2268 6.43713 16.2923C6.43713 16.3579 6.45006 16.4227 6.47515 16.4831C6.50024 16.5434 6.53697 16.598 6.58314 16.6435C7.38847 17.4142 8.3714 17.9643 9.4406 18.2429L9.16455 19.532C9.14995 19.604 9.15102 19.6785 9.16767 19.75C9.18433 19.8216 9.21617 19.8885 9.26094 19.9461C9.30571 20.0037 9.36232 20.0505 9.42676 20.0833C9.49121 20.1161 9.56191 20.134 9.63388 20.1357H11.4146C11.5255 20.1363 11.6332 20.098 11.7196 20.0271C11.8061 19.9562 11.8661 19.8571 11.8896 19.7464L12.1463 18.525C14.9789 18.3473 16.71 16.7903 16.71 14.511C16.71 12.4124 14.9844 11.5267 12.8889 10.8045C11.6907 10.3447 10.6554 10.0429 10.6554 9.13461C10.6554 8.22634 11.6217 7.89911 12.588 7.89911Z" fill="white"/>
</svg>
