<svg width="414" height="247" viewBox="0 0 414 247" fill="none" xmlns="http://www.w3.org/2000/svg">
<g clip-path="url(#clip0)">
<path d="M254.634 142.548L249.252 146.707L249.64 153.485L244.013 149.663L237.681 152.119L239.58 145.606L235.281 140.357L242.072 140.143L245.759 134.435L248.057 140.826L254.634 142.548Z" fill="#7F60BD"/>
<path d="M11.0153 6.64292C10.5251 6.4085 9.95318 6.46965 9.53445 6.79581L4.28502 10.8728L-2.05719 8.86486C-2.56784 8.70179 -3.13976 8.84448 -3.50742 9.23179C-3.64019 9.36429 -3.74232 9.52737 -3.8036 9.69045C-3.92615 10.0064 -3.93637 10.3631 -3.82402 10.6893L-1.56697 16.9372L-5.43766 22.329C-5.75426 22.7673 -5.79511 23.3483 -5.53979 23.8171C-5.28447 24.2961 -4.78403 24.5815 -4.24275 24.5612L2.40585 24.3471L6.35824 29.6879C6.67484 30.116 7.21612 30.33 7.74719 30.2383C8.27826 30.1466 8.71742 29.7593 8.8604 29.2395L10.7089 22.8692L17.0205 20.7798C17.5312 20.6065 17.8988 20.1682 17.9805 19.6382C18.052 19.1082 17.8171 18.5782 17.3677 18.2724L11.863 14.542L11.8221 7.90678C11.8119 7.37677 11.4953 6.87735 11.0153 6.64292ZM9.00338 10.7912L9.03402 15.3065C9.04423 15.7753 9.26891 16.2034 9.657 16.4684L13.4051 19.0063L9.10551 20.4332C8.66636 20.5759 8.3089 20.9225 8.19656 21.3811L6.93016 25.7231L4.24417 22.0844C3.96842 21.7073 3.51905 21.4932 3.05947 21.5136L-1.46484 21.6563L1.17009 17.9871C1.24158 17.8953 1.29264 17.7934 1.34371 17.6813C1.46626 17.3653 1.47647 17.0086 1.35392 16.6824L-0.178018 12.4322L4.13183 13.8082C4.5812 13.9509 5.0612 13.8591 5.42887 13.5737L9.00338 10.7912Z" fill="#FF4F79"/>
<path d="M399.187 147.91C399.994 148.48 400.219 149.571 399.678 150.325C399.136 151.079 398.033 151.232 397.226 150.661L393.264 147.848C392.457 147.278 392.232 146.187 392.774 145.433C393.315 144.679 394.418 144.526 395.225 145.096L399.187 147.91Z" fill="#CEF9F2"/>
<path d="M406.347 190.177L403.528 194.132C402.956 194.937 401.863 195.151 401.107 194.621C400.352 194.081 400.198 192.98 400.77 192.175L403.589 188.22C404.161 187.415 405.254 187.191 406.01 187.731C406.776 188.271 406.919 189.372 406.347 190.177Z" fill="#CEF9F2"/>
<path d="M395.082 170.333C395.235 171.25 394.571 172.137 393.591 172.3L388.791 173.105C387.82 173.268 386.891 172.657 386.738 171.739C386.585 170.822 387.259 169.935 388.229 169.772L393.029 168.967C393.999 168.804 394.929 169.426 395.082 170.333Z" fill="#CEF9F2"/>
<path d="M195.205 49.9708C195.583 50.2358 195.685 50.7454 195.43 51.092C195.174 51.4487 194.664 51.5099 194.296 51.2449L192.458 49.9402C192.08 49.6752 191.978 49.1656 192.233 48.8191C192.488 48.4623 192.999 48.4012 193.367 48.6662L195.205 49.9708Z" fill="#FF4F79"/>
<path d="M171.664 33.2756C172.042 33.5406 172.144 34.0503 171.889 34.3968C171.634 34.7535 171.123 34.8147 170.755 34.5497L168.917 33.2451C168.539 32.9801 168.437 32.4704 168.692 32.1239C168.948 31.7672 169.458 31.706 169.826 31.971L171.664 33.2756Z" fill="#FF4F79"/>
<path d="M191.712 29.4025L190.405 31.2372C190.139 31.6143 189.629 31.7162 189.281 31.4614C188.924 31.2066 188.863 30.697 189.128 30.3301L190.436 28.4954C190.701 28.1183 191.212 28.0164 191.559 28.2712C191.916 28.5158 191.978 29.0254 191.712 29.4025Z" fill="#FF4F79"/>
<path d="M174.984 52.896L173.676 54.7307C173.411 55.1078 172.9 55.2097 172.553 54.9549C172.195 54.7001 172.134 54.1905 172.4 53.8235L173.707 51.9889C173.972 51.6118 174.483 51.5098 174.83 51.7647C175.178 52.0093 175.249 52.5189 174.984 52.896Z" fill="#FF4F79"/>
<path d="M198.228 38.8815C198.299 39.3095 197.993 39.7172 197.533 39.7886L195.307 40.1657C194.858 40.2472 194.429 39.9619 194.357 39.5338C194.286 39.1057 194.592 38.698 195.052 38.6165L197.278 38.2394C197.727 38.168 198.156 38.4534 198.228 38.8815Z" fill="#FF4F79"/>
<path d="M169.754 43.6821C169.826 44.1102 169.52 44.5179 169.06 44.5994L166.834 44.9765C166.384 45.0581 165.955 44.7727 165.884 44.3446C165.812 43.9165 166.119 43.5088 166.578 43.4375L168.805 43.0604C169.254 42.9788 169.683 43.2642 169.754 43.6821Z" fill="#FF4F79"/>
<path d="M180.233 26.1614L180.611 28.3833C180.682 28.8318 180.396 29.2599 179.978 29.3312C179.549 29.4026 179.14 29.0968 179.058 28.6381L178.68 26.4162C178.609 25.9677 178.885 25.5396 179.314 25.4581C179.743 25.397 180.161 25.7027 180.233 26.1614Z" fill="#FF4F79"/>
<path d="M185.053 54.5778L185.431 56.7997C185.503 57.2482 185.217 57.6762 184.798 57.7476C184.369 57.8189 183.961 57.5132 183.879 57.0545L183.501 54.8326C183.419 54.3841 183.705 53.956 184.134 53.8745C184.563 53.8133 184.972 54.1293 185.053 54.5778Z" fill="#FF4F79"/>
<path d="M435.606 41.7149H418.867C417.989 41.7149 417.213 42.2755 416.947 43.1113L411.77 59.0012C411.494 59.837 411.8 60.7441 412.505 61.2538L426.047 71.069C426.752 71.5787 427.712 71.5787 428.427 71.069L441.969 61.2538C442.674 60.7441 442.98 59.8268 442.704 59.0012L437.537 43.1113C437.261 42.2857 436.485 41.7149 435.606 41.7149ZM420.338 45.7613H434.136L438.394 58.8586L427.232 66.9513L416.069 58.8586L420.338 45.7613Z" fill="#FF4F79"/>
<path d="M219.236 202.174L202.068 195.161L203.447 176.693L221.462 172.3L231.226 188.047L219.236 202.174Z" fill="#7B5ABA"/>
<path d="M17.6844 129.533L2.65098 130.358C1.94629 130.399 1.32329 130.807 1.00669 131.428L-5.78489 144.831C-6.10149 145.453 -6.06063 146.207 -5.67254 146.788L2.55906 159.366C2.94715 159.957 3.61099 160.293 4.31568 160.253L19.3389 159.427C20.0436 159.386 20.6665 158.978 20.9831 158.357L27.7747 144.954C28.0913 144.322 28.0505 143.578 27.6624 142.997L19.4308 130.419C19.0529 129.838 18.3891 129.502 17.6844 129.533ZM16.7652 133.518L23.7508 144.199L17.9805 155.574L5.22463 156.277L-1.761 145.596L4.00929 134.221L16.7652 133.518Z" fill="#CEF9F2"/>
<path d="M144.089 195.355L129.066 196.181C128.362 196.221 127.739 196.629 127.422 197.251L120.63 210.654C120.314 211.276 120.355 212.03 120.743 212.611L128.974 225.188C129.362 225.779 130.026 226.116 130.731 226.075L145.754 225.249C146.459 225.209 147.082 224.801 147.398 224.179L154.19 210.776C154.507 210.144 154.466 209.4 154.078 208.819L145.846 196.242C145.468 195.651 144.794 195.314 144.089 195.355ZM143.18 199.34L150.166 210.022L144.396 221.397L131.64 222.1L124.654 211.418L130.425 200.044L143.18 199.34Z" fill="#CEF9F2"/>
<path d="M282.832 174.012C283.588 174.084 283.833 173.951 283.914 173.859C284.18 173.564 284.639 173.543 284.936 173.808C285.232 174.073 285.252 174.532 284.987 174.828C283.996 175.918 282.107 175.419 280.105 174.899C279.288 174.685 278.43 174.461 277.756 174.389C277 174.308 276.755 174.451 276.663 174.542C276.581 174.634 276.459 174.899 276.602 175.643C276.735 176.316 277.031 177.141 277.317 177.936C278.021 179.873 278.675 181.697 277.684 182.788C276.684 183.878 274.804 183.379 272.813 182.859C271.986 182.645 271.138 182.421 270.464 182.35C269.708 182.268 269.453 182.411 269.371 182.503C269.289 182.594 269.167 182.859 269.31 183.603C269.443 184.276 269.739 185.102 270.025 185.897C270.729 187.833 271.383 189.658 270.392 190.748C269.392 191.839 267.512 191.339 265.521 190.82C264.694 190.605 263.846 190.381 263.172 190.31C262.416 190.228 262.161 190.371 262.079 190.463C261.814 190.758 261.354 190.779 261.058 190.514C260.762 190.249 260.741 189.79 261.017 189.494C262.018 188.404 263.897 188.903 265.888 189.423C266.716 189.637 267.563 189.861 268.248 189.933C269.003 190.004 269.259 189.872 269.34 189.78C269.422 189.688 269.545 189.423 269.402 188.679C269.279 188.006 268.973 187.181 268.687 186.386C267.992 184.449 267.329 182.625 268.319 181.534C269.31 180.444 271.199 180.943 273.191 181.463C274.018 181.677 274.866 181.901 275.55 181.973C276.306 182.044 276.561 181.911 276.643 181.82C276.724 181.728 276.847 181.463 276.704 180.719C276.571 180.046 276.275 179.221 275.989 178.426C275.295 176.489 274.631 174.665 275.621 173.574C276.612 172.494 278.501 172.983 280.493 173.503C281.3 173.717 282.147 173.941 282.832 174.012Z" fill="#FF4F79"/>
<path d="M339.207 207.688C336.981 211.643 331.956 213.049 327.983 210.827C324.02 208.595 322.611 203.58 324.848 199.626C327.084 195.671 332.109 194.265 336.072 196.486C340.034 198.708 341.444 203.733 339.207 207.688Z" fill="#7F60BD"/>
<path d="M11.2299 180.749C8.96259 178.691 5.43914 178.854 3.36592 181.116C1.30292 183.379 1.46632 186.906 3.73359 188.964C6.00085 191.023 9.5243 190.86 11.5975 188.598C13.6605 186.335 13.4971 182.808 11.2299 180.749ZM10.5047 181.555C12.3328 183.216 12.4656 186.049 10.8009 187.874C9.13621 189.698 6.29703 189.831 4.46892 188.169C2.64081 186.508 2.50804 183.675 4.17274 181.85C5.83744 180.026 8.67663 179.893 10.5047 181.555Z" fill="#7F60BD"/>
<path d="M111.142 119.238L109.794 126.923L117.495 128.269C117.75 128.32 117.924 128.554 117.873 128.819C117.852 128.941 117.781 129.054 117.679 129.125C117.577 129.196 117.454 129.227 117.321 129.206L109.621 127.861L108.273 135.546C108.232 135.801 107.987 135.974 107.731 135.933C107.476 135.893 107.302 135.648 107.343 135.393L108.691 127.708L100.991 126.363C100.736 126.312 100.562 126.067 100.603 125.823C100.644 125.568 100.889 125.395 101.154 125.435L108.855 126.791L110.203 119.106C110.254 118.851 110.499 118.678 110.744 118.718C110.877 118.739 110.979 118.81 111.051 118.912C111.132 118.994 111.163 119.116 111.142 119.238Z" fill="#7E5EBC"/>
<path d="M78.1447 94.6441C78.4511 94.9804 78.5736 95.4493 78.4613 95.8875C78.3489 96.3258 78.0221 96.6825 77.5932 96.8354L72.5991 98.5987L75.9898 102.502C76.2859 102.849 76.3881 103.318 76.2757 103.746C76.2757 103.746 76.2757 103.746 76.2757 103.756C76.1532 104.194 75.8161 104.541 75.3872 104.684L70.485 106.253L73.8553 110.361C74.1412 110.707 74.2331 111.186 74.1004 111.625C73.9676 112.063 73.6204 112.399 73.1812 112.522L66.4509 114.458C65.7258 114.662 64.9803 114.254 64.7658 113.531C64.5615 112.817 64.97 112.063 65.6952 111.859L70.4442 110.493L67.1147 106.437C66.8288 106.09 66.7369 105.631 66.8696 105.193C66.9922 104.765 67.3292 104.429 67.7582 104.286L72.5991 102.737L69.2492 98.8841C68.9531 98.5477 68.8509 98.0891 68.9633 97.6508C69.0756 97.2125 69.4024 96.866 69.8212 96.7233L74.7438 94.9804L71.3735 91.3315C70.8629 90.7812 70.9037 89.925 71.4552 89.4154C72.0067 88.9057 72.8646 88.9465 73.3753 89.4969L78.1447 94.6441Z" fill="#CEF9F2"/>
<path d="M75.2443 -19.8267L67.4314 -18.0533L71.8434 -11.5709C72.068 -11.2447 72.1089 -10.8167 71.9659 -10.4395C71.8127 -10.0624 71.4859 -9.79741 71.0876 -9.71587L63.4177 -8.21759L67.7378 -1.44984C67.9523 -1.11349 67.9829 -0.685413 67.8195 -0.318487C67.6561 0.048439 67.3191 0.31344 66.9207 0.374594L57.6474 1.90345C56.9938 2.01557 56.3708 1.5671 56.2687 0.914791C56.1563 0.262478 56.6057 -0.359259 57.2594 -0.461182L64.725 -1.69446L60.4356 -8.41125C60.2211 -8.7476 60.1904 -9.16549 60.3436 -9.53241C60.4968 -9.89934 60.8236 -10.1541 61.2117 -10.2357L68.8306 -11.7238L64.4594 -18.1654C64.2348 -18.4915 64.1939 -18.9094 64.3369 -19.2763C64.4799 -19.6433 64.7965 -19.9083 65.1743 -20H75.6324C75.52 -19.9185 75.3872 -19.8573 75.2443 -19.8267Z" fill="#7F60BD"/>
<path d="M114.023 18.2011L109.58 24.3165L117.372 26.0696C117.761 26.1614 118.077 26.4264 118.23 26.8035C118.373 27.1704 118.332 27.5883 118.108 27.9144L113.747 34.3255L121.396 35.8237C121.784 35.9053 122.111 36.1601 122.264 36.527C122.418 36.8939 122.387 37.3118 122.172 37.638L117.903 44.3242L125.41 45.5575C125.798 45.6186 126.135 45.8734 126.309 46.2302C126.472 46.5869 126.452 47.0048 126.247 47.3513L122.07 54.3229L129.434 55.2912C130.098 55.3829 130.557 55.9843 130.465 56.6366C130.373 57.2889 129.771 57.7578 129.117 57.666L119.946 56.4531C119.548 56.4022 119.201 56.1474 119.027 55.7906C119.017 55.7702 119.006 55.7499 118.996 55.7295C118.853 55.3829 118.874 54.9854 119.078 54.6593L123.286 47.6367L115.718 46.3932C115.32 46.3321 114.983 46.0671 114.819 45.7002C114.656 45.3332 114.686 44.9052 114.901 44.5688L119.201 37.8316L111.49 36.3232C111.091 36.2416 110.765 35.9766 110.611 35.6097C110.458 35.2326 110.499 34.8147 110.724 34.4783L115.115 28.0266L107.272 26.2531C106.874 26.1613 106.557 25.8862 106.414 25.509C106.271 25.1319 106.332 24.714 106.567 24.3879L112.072 16.7945C112.46 16.2543 113.216 16.132 113.747 16.5295C114.288 16.9169 114.411 17.6609 114.023 18.2011Z" fill="#CEF9F2"/>
<path d="M251.039 9.08908C251.325 9.79235 250.947 10.6077 250.202 10.9135L246.535 12.4118C245.79 12.7176 244.942 12.3914 244.656 11.6881C244.37 10.9849 244.748 10.1695 245.493 9.8637L249.16 8.37561C249.905 8.06984 250.753 8.396 251.039 9.08908Z" fill="#FF4F79"/>
<path d="M274.478 -0.46117C274.763 0.242106 274.386 1.0575 273.64 1.36327L269.974 2.86155C269.228 3.16733 268.38 2.84117 268.094 2.13789C267.809 1.43462 268.186 0.619226 268.932 0.313454L272.598 -1.17464C273.344 -1.48041 274.192 -1.16445 274.478 -0.46117Z" fill="#FF4F79"/>
<path d="M264.878 14.9599L266.379 18.619C266.685 19.363 266.358 20.209 265.654 20.4944C264.949 20.7798 264.132 20.4027 263.826 19.6586L262.335 15.9996C262.028 15.2555 262.355 14.4095 263.06 14.1242C263.754 13.849 264.571 14.2159 264.878 14.9599Z" fill="#FF4F79"/>
<path d="M250.252 0.221706C250.998 0.53767 251.366 1.36325 251.069 2.05634C250.773 2.74942 249.926 3.07558 249.19 2.75961L245.534 1.23075C244.789 0.914789 244.421 0.089206 244.717 -0.603876C245.013 -1.29696 245.861 -1.61292 246.596 -1.30715L250.252 0.221706Z" fill="#FF4F79"/>
<path d="M273.599 10.0064C274.345 10.3224 274.712 11.148 274.416 11.841C274.12 12.5341 273.272 12.8501 272.537 12.5443L268.881 11.0155C268.135 10.6995 267.768 9.8739 268.064 9.18082C268.36 8.48773 269.208 8.17177 269.953 8.47754L273.599 10.0064Z" fill="#FF4F79"/>
<path d="M256.697 15.9792L255.165 19.628C254.848 20.3721 254.021 20.739 253.327 20.4434C252.632 20.1479 252.316 19.3019 252.622 18.568L254.154 14.9293C254.47 14.1853 255.298 13.8184 255.992 14.114C256.697 14.3891 257.013 15.2351 256.697 15.9792Z" fill="#FF4F79"/>
<path d="M39.0089 221.295L38.7331 226.146C38.6821 227.135 37.865 227.899 36.9357 227.838C36.0063 227.787 35.2914 226.931 35.3527 225.953L35.6386 221.101C35.6999 220.112 36.5067 219.358 37.4361 219.409C38.3553 219.45 39.0702 220.306 39.0089 221.295Z" fill="#FF4F79"/>
<path d="M369.549 46.5971C369.08 47.2698 368.15 47.4329 367.476 46.964C361.716 42.9482 354.741 41.4296 347.837 42.7138C333.733 45.3129 324.388 58.8891 326.992 72.9648C327.145 73.77 326.604 74.5446 325.797 74.6975C324.99 74.8504 324.214 74.3102 324.061 73.505C322.652 65.9015 324.286 58.2164 328.677 51.8462C333.069 45.4759 339.677 41.1951 347.285 39.7886C354.986 38.3616 362.758 40.0536 369.172 44.528C369.856 45.0071 370.019 45.9244 369.549 46.5971Z" fill="#FF4F79"/>
<path d="M171.991 87.6521C171.828 87.5909 171.654 87.5909 171.501 87.6317L140.811 93.7471C140.515 93.8083 140.27 94.0223 140.178 94.3077C140.086 94.5931 140.147 94.9091 140.341 95.1333L161.022 118.647C161.227 118.871 161.523 118.973 161.819 118.922C162.115 118.861 162.36 118.647 162.452 118.362L172.512 88.7223C172.665 88.284 172.43 87.805 171.991 87.6521ZM170.439 89.5682L161.319 116.435L142.568 95.1231L170.439 89.5682Z" fill="#7F60BC"/>
<path d="M25.8649 50.195C25.1602 50.0116 24.4044 50.2256 23.8938 50.7454C23.3831 51.2652 23.1891 52.0195 23.3831 52.7227L30.7569 79.2128C30.9509 79.9161 31.5126 80.4563 32.2173 80.6397C32.922 80.8232 33.6777 80.6091 34.1884 80.0893L53.4908 60.469C54.2772 59.6638 54.267 58.3693 53.4601 57.5845C53.1742 57.2991 52.827 57.1259 52.4491 57.0443L25.8649 50.195ZM28.2649 55.0262L48.0882 60.1326L33.7492 74.7077L28.2649 55.0262Z" fill="#CEF9F2"/>
<path d="M348.909 140.673L334.509 147.257L321.59 138.115L323.06 122.367L337.461 115.783L350.38 124.926L348.909 140.673Z" fill="#CEF9F2"/>
<path d="M293.116 49.3287L278.175 51.1123C277.47 51.1939 276.878 51.6423 276.602 52.2947L270.678 66.1054C270.403 66.7475 270.494 67.4915 270.913 68.0521L279.931 80.0791C280.35 80.6397 281.044 80.9353 281.739 80.8537L296.68 79.0701C297.375 78.9885 297.977 78.5401 298.253 77.8979L304.177 64.0873C304.452 63.4451 304.36 62.7011 303.942 62.1405L294.924 50.1135C294.505 49.5427 293.811 49.2471 293.116 49.3287ZM292.452 53.3649L300.112 63.5776L295.077 75.2989L282.393 76.8074L274.733 66.5946L279.768 54.8733L292.452 53.3649Z" fill="#CEF9F2"/>
<path d="M88.7048 176.632C88.6231 176.723 88.521 176.999 88.6946 177.732C88.858 178.395 89.195 179.21 89.5218 179.995C90.3184 181.891 91.064 183.695 90.1142 184.826C89.1746 185.958 87.2648 185.55 85.2528 185.122C84.4154 184.949 83.5575 184.765 82.8834 184.724C82.1277 184.684 81.8826 184.837 81.8009 184.928C81.7192 185.02 81.617 185.295 81.7907 186.029C81.9541 186.692 82.2911 187.497 82.6179 188.282C83.4043 190.177 84.1498 191.981 83.2103 193.113C82.2605 194.244 80.3609 193.836 78.3489 193.408C77.5115 193.225 76.6536 193.052 75.9795 193.011C75.2238 192.97 74.9786 193.123 74.8969 193.215C74.8152 193.306 74.7131 193.582 74.8867 194.315C75.0501 194.978 75.3872 195.793 75.714 196.578C76.5004 198.474 77.2459 200.278 76.3063 201.409C76.051 201.715 75.6016 201.756 75.2952 201.501C74.9889 201.246 74.948 200.798 75.2033 200.492C75.285 200.4 75.3872 200.125 75.2135 199.391C75.0501 198.729 74.7131 197.913 74.3863 197.129C73.5897 195.223 72.8544 193.429 73.794 192.297C74.7438 191.166 76.6434 191.574 78.6553 192.002C79.4928 192.175 80.3506 192.359 81.0349 192.399C81.7907 192.44 82.0358 192.287 82.1175 192.195C82.1992 192.104 82.3013 191.829 82.1277 191.095C81.9643 190.432 81.6273 189.617 81.3004 188.842C80.5141 186.936 79.7685 185.142 80.7081 184.011C81.6477 182.88 83.5575 183.287 85.5694 183.715C86.4069 183.899 87.2648 184.072 87.949 184.113C88.7048 184.154 88.9499 184.001 89.0316 183.909C89.1133 183.817 89.2154 183.542 89.0418 182.808C88.8784 182.146 88.5414 181.33 88.2146 180.556C87.4282 178.65 86.6724 176.856 87.6222 175.725C87.8775 175.419 88.3371 175.378 88.6435 175.633C88.9193 175.877 88.9601 176.326 88.7048 176.632Z" fill="#FF4F79"/>
<path d="M216.019 76.2162L217.224 80.2524C217.49 81.1595 218.511 81.7405 219.43 81.5061L223.525 80.4766C225.425 79.9976 227.437 81.1391 227.999 83.0145L229.204 87.0507C229.48 87.9578 230.491 88.5388 231.41 88.3044L235.505 87.275C237.405 86.7959 239.406 87.9375 239.968 89.8129L241.173 93.849C241.449 94.7562 242.46 95.3371 243.379 95.1027L247.475 94.0733C248.424 93.8389 249.405 94.0019 250.212 94.4606C251.019 94.9193 251.662 95.6735 251.938 96.6112L253.143 100.647C253.419 101.565 254.43 102.135 255.349 101.901L259.444 100.872C261.344 100.393 263.345 101.534 263.907 103.41L265.112 107.446C265.388 108.363 266.399 108.934 267.329 108.699L271.424 107.67C273.323 107.191 275.325 108.332 275.897 110.208L277.102 114.244C277.378 115.151 278.389 115.732 279.308 115.498L283.404 114.468C285.303 113.989 287.315 115.131 287.877 117.006L289.082 121.042C289.358 121.95 290.359 122.52 291.278 122.276C291.778 122.143 292.289 122.449 292.422 122.948C292.554 123.448 292.258 123.957 291.758 124.09C289.848 124.589 287.846 123.458 287.285 121.583L286.079 117.546C285.804 116.629 284.793 116.058 283.873 116.293L279.778 117.322C277.878 117.801 275.877 116.66 275.315 114.784L274.11 110.748C273.834 109.831 272.823 109.26 271.904 109.494L267.809 110.524C265.909 111.003 263.907 109.861 263.345 107.986L262.14 103.95C261.875 103.043 260.854 102.462 259.934 102.696L255.839 103.725C253.939 104.205 251.927 103.063 251.376 101.188L250.171 97.1514C249.895 96.2341 248.884 95.6633 247.965 95.8977L243.869 96.9271C241.97 97.4062 239.958 96.2647 239.406 94.3893L238.201 90.3531C237.926 89.4357 236.914 88.865 235.995 89.0994L231.9 90.1288C230 90.6079 227.988 89.4663 227.437 87.5909L226.232 83.5547C225.956 82.6374 224.945 82.0666 224.026 82.3011L219.93 83.3305C218.031 83.8095 216.019 82.668 215.457 80.7926L214.252 76.7564C213.976 75.8391 212.965 75.2683 212.046 75.5027C211.546 75.625 211.035 75.3295 210.902 74.83C210.78 74.3306 211.086 73.821 211.586 73.6885C213.455 73.1992 215.457 74.3408 216.019 76.2162Z" fill="#FF4F79"/>
<path d="M412.27 -14.4044C412.791 -14.1802 413.026 -13.5686 412.801 -13.0488L410.044 -6.76009C409.819 -6.24027 410.054 -5.62873 410.575 -5.4045L416.876 -2.65255C417.397 -2.42832 417.632 -1.81677 417.407 -1.29696L415.793 2.40288C415.569 2.92269 414.956 3.15711 414.435 2.93288L408.134 0.180935C407.613 -0.0432987 407 0.191128 406.776 0.710939L404.018 6.99965C403.793 7.51946 403.181 7.75389 402.66 7.52965L398.952 5.90906C398.432 5.67463 398.197 5.07328 398.421 4.55347L401.179 -1.73524C401.404 -2.25505 401.169 -2.86659 400.648 -3.09082L394.346 -5.84277C393.826 -6.067 393.591 -6.67855 393.815 -7.19836L395.439 -10.8982C395.664 -11.418 396.277 -11.6524 396.798 -11.4282L403.099 -8.67626C403.62 -8.45202 404.232 -8.68645 404.457 -9.20626L407.215 -15.495C407.439 -16.0148 408.052 -16.2492 408.573 -16.025L412.27 -14.4044Z" fill="#CEF9F2"/>
</g>
<defs>
<clipPath id="clip0">
<rect width="579" height="267" fill="white" transform="translate(-54 -20)"/>
</clipPath>
</defs>
</svg>
