<svg width="66" height="38" viewBox="0 0 66 38" fill="none" xmlns="http://www.w3.org/2000/svg">
<g opacity="0.4" clip-path="url(#clip0)">
<path d="M23.1172 4.16587C22.3644 3.07337 21.2711 2.83666 20.0523 2.96412C19.6042 3.01875 19.2995 2.9095 18.9769 2.54533C17.31 0.688091 14.8545 0.251093 12.6858 1.43463C12.2915 1.65313 12.0405 1.63492 11.6641 1.47105C8.6351 0.0508026 5.26551 1.17971 3.47317 4.0202C2.52324 5.53148 2.23646 7.1156 2.32608 8.82718C2.344 9.37342 2.25439 9.70117 1.75253 10.0653C-0.434116 11.6677 -0.55958 15.3457 1.50161 17.1301C2.4157 17.9313 3.50902 18.3137 4.72781 18.0588C5.62398 17.8767 6.4126 17.4579 6.60976 16.4018C7.20123 15.5096 7.72101 14.5628 8.4021 13.7434C11.0368 10.6298 14.2272 8.24451 17.9552 6.64219C19.5146 5.96848 21.1456 5.53148 22.7408 4.96703C22.9917 4.96703 23.3502 5.07628 23.4398 4.76674C23.4936 4.62107 23.2606 4.36616 23.1172 4.16587Z" fill="white"/>
</g>
<path d="M19.0733 23.6843C19.0733 23.2897 19.0459 22.9496 19.087 22.623C19.1555 22.0924 18.8953 21.7795 18.457 21.5482C16.553 20.6094 14.6354 20.3509 12.6219 21.208C9.69072 22.4461 8.06074 25.1945 8.62233 28.4462C9.34829 32.7048 13.8136 35.0314 17.8406 33.3579C19.0459 32.8545 19.2651 32.4055 18.9364 31.0585C16.3887 33.4395 13.1561 32.8953 11.3481 30.9633C9.40307 28.8952 9.43047 25.6571 11.4714 23.5346C13.1287 21.7795 16.3339 21.1264 19.0733 23.6843ZM48.2074 33.5484C48.2074 31.113 48.2074 28.7592 48.2074 26.351C48.043 26.3918 47.9471 26.4462 47.8376 26.4462C47.1116 26.5278 46.824 26.868 46.8787 27.6435C46.9609 28.7184 46.9061 29.8204 46.8924 30.8953C46.8787 32.0381 46.0843 32.7456 44.8379 32.7592C43.5503 32.7728 42.7833 32.1198 42.7422 30.9633C42.7148 30.2422 42.7285 29.5211 42.7285 28.7864C42.7285 27.9837 42.7285 27.1809 42.7285 26.3238C42.3587 26.4326 42.071 26.4734 41.8519 26.5959C41.6738 26.7047 41.4683 26.9224 41.4546 27.0993C41.4272 28.3918 41.4272 29.6844 41.4409 30.9633C41.4683 33.2354 43.4818 34.4055 45.4679 33.63C45.9747 33.4395 46.3993 33.0586 46.8651 32.7728C46.8787 32.9905 46.8924 33.2354 46.9061 33.5076C47.3582 33.5484 47.7554 33.5484 48.2074 33.5484ZM58.2064 26.6095C59.2611 28.6775 60.2473 30.6504 61.2883 32.596C61.48 32.9633 61.48 33.2218 61.302 33.5892C60.7678 34.6232 60.2747 35.6709 59.7816 36.7185C60.713 37.2355 60.7404 37.2219 61.165 36.4464C61.302 36.1879 61.4115 35.9158 61.5485 35.6573C62.521 33.698 63.5072 31.7388 64.4797 29.766C64.9865 28.7456 65.4659 27.7115 66.0001 26.6095C65.5618 26.487 65.2331 26.3782 64.8769 26.2829C63.9729 28.1197 63.11 29.8884 62.1649 31.8068C61.1239 29.8748 60.1651 28.1061 59.1926 26.2829C58.8501 26.3918 58.5762 26.487 58.2064 26.6095ZM53.6041 26.2421C53.6041 25.2897 53.6041 24.419 53.6041 23.4938C53.3712 23.589 53.2343 23.6843 53.0836 23.6979C52.4261 23.7659 52.3166 24.1605 52.3577 24.7319C52.3987 25.2217 52.3713 25.7115 52.3713 26.2013C51.1523 26.3238 51.0838 26.3782 51.0427 27.3442C51.4673 27.3442 51.8919 27.3442 52.2892 27.3442C52.3303 27.453 52.3577 27.4938 52.3577 27.5347C52.3577 28.7184 52.3713 29.8884 52.3713 31.0721C52.3713 33.0586 53.0699 33.7933 55.1382 33.9157C55.1382 33.5484 55.1382 33.181 55.1382 32.7728C54.4259 32.7048 53.7137 32.4735 53.6589 31.7116C53.563 30.283 53.6315 28.8408 53.6315 27.3306C54.2342 27.3306 54.7821 27.3306 55.33 27.3306C55.33 26.936 55.33 26.6231 55.33 26.2557C54.7684 26.2421 54.2479 26.2421 53.6041 26.2421Z" fill="white"/>
<path d="M25.5247 37.2348C24.0043 36.7994 23.7577 35.5749 23.6208 34.2552C23.2783 31.2075 22.8948 28.1598 22.525 25.1122C22.251 22.9216 21.9497 20.7311 21.7305 18.527C21.6621 17.8195 21.2648 17.5338 20.7033 17.3433C18.3199 16.5678 16.101 16.9079 14.0327 18.3229C13.8272 18.4726 13.43 18.5406 13.1972 18.4454C10.759 17.3977 6.75945 18.5406 5.41712 20.8944C5.40342 20.9216 5.34864 20.9352 5.30754 20.9624C4.95142 17.7787 5.99241 15.0031 7.88263 12.5133C10.6769 8.82618 14.4984 6.7173 18.9089 5.54721C19.2787 5.45197 19.6486 5.34313 20.0458 5.23428C20.0458 4.43155 19.6897 3.42473 21.0868 3.38391C21.1553 3.87372 21.2374 4.39073 21.3333 5.01659C21.9086 4.96217 22.4839 4.89414 23.0729 4.86693C26.6753 4.67645 30.1544 5.19346 33.3732 6.86696C36.6332 8.56767 38.9891 11.0303 39.9479 14.663C39.989 14.8127 40.0027 14.9759 40.0301 15.1256C40.0575 15.2753 40.0712 15.4385 40.0849 15.4385C39.2904 15.0848 38.4686 14.5406 37.5646 14.3501C35.2771 13.8739 33.1404 14.282 31.3186 15.8739C31.1679 16.01 30.8118 16.0644 30.6338 15.9828C27.9491 14.8807 25.5247 15.3569 23.292 17.0984C23.0866 17.2617 22.9085 17.629 22.9359 17.8876C23.1003 19.5474 23.3331 21.2073 23.5386 22.8536C23.8399 25.3162 24.1276 27.7789 24.4289 30.2415C24.6207 31.7653 24.7987 33.2892 25.0042 34.813C25.1412 35.779 25.5247 36.0375 26.5657 35.9967C27.5382 35.9559 27.9217 35.5613 28.0313 34.4184C28.4148 34.3912 28.812 34.364 29.1955 34.3368C29.6476 35.4661 28.7846 36.7994 27.456 37.0715C27.3053 37.0988 27.1684 37.1668 27.0314 37.2076C26.5246 37.2348 26.0315 37.2348 25.5247 37.2348Z" fill="white"/>
<path d="M19.0735 23.6843C16.3477 21.1264 13.1426 21.7795 11.4441 23.5346C9.40322 25.6571 9.37582 28.8952 11.3208 30.9633C13.1289 32.8953 16.3614 33.4531 18.9091 31.0585C19.2378 32.4055 19.0324 32.8545 17.8133 33.3579C13.7863 35.0314 9.30733 32.7048 8.59508 28.4462C8.04719 25.1945 9.66346 22.4598 12.5947 21.208C14.6082 20.3509 16.5395 20.6094 18.4297 21.5482C18.8817 21.7659 19.1283 22.0788 19.0598 22.623C19.0324 22.9496 19.0735 23.2897 19.0735 23.6843Z" fill="white"/>
<path d="M48.2076 33.5484C47.7555 33.5484 47.3583 33.5484 46.92 33.5484C46.9063 33.2763 46.8926 33.0314 46.8789 32.8137C46.4132 33.0994 45.9749 33.4804 45.4818 33.6709C43.4957 34.4328 41.4822 33.2763 41.4548 31.0042C41.4411 29.7116 41.4411 28.4191 41.4685 27.1401C41.4685 26.9633 41.6877 26.7456 41.8657 26.6367C42.0849 26.5007 42.3725 26.4735 42.7423 26.3646C42.7423 27.2218 42.7423 28.0245 42.7423 28.8272C42.7423 29.5483 42.7286 30.2831 42.756 31.0042C42.7971 32.1606 43.5779 32.8001 44.8517 32.8001C46.0845 32.7865 46.8926 32.0654 46.9063 30.9361C46.92 29.8477 46.9748 28.7592 46.8926 27.6844C46.8378 26.9089 47.1255 26.5687 47.8514 26.4871C47.961 26.4735 48.0706 26.4327 48.2212 26.3918C48.2075 28.7592 48.2076 31.1266 48.2076 33.5484Z" fill="white"/>
<path d="M58.2065 26.6095C58.5901 26.4734 58.864 26.3918 59.179 26.283C60.1515 28.0925 61.1104 29.8749 62.1513 31.8069C63.0965 29.8885 63.9594 28.1197 64.8634 26.283C65.2332 26.3918 65.562 26.487 65.9866 26.6095C65.4524 27.7116 64.973 28.7456 64.4662 29.766C63.4937 31.7252 62.5212 33.6844 61.535 35.6573C61.398 35.9158 61.3021 36.1879 61.1514 36.4464C60.7268 37.2219 60.6994 37.2219 59.768 36.7185C60.2748 35.6845 60.7542 34.6232 61.2884 33.5892C61.4802 33.2218 61.4802 32.9769 61.2747 32.596C60.2474 30.6504 59.2612 28.6776 58.2065 26.6095Z" fill="white"/>
<path d="M53.6041 26.2422C54.2479 26.2422 54.7683 26.2422 55.3436 26.2422C55.3436 26.6095 55.3436 26.9225 55.3436 27.317C54.7957 27.317 54.2616 27.317 53.6452 27.317C53.6452 28.8273 53.5767 30.2695 53.6726 31.698C53.7274 32.4736 54.4396 32.6913 55.1519 32.7593C55.1519 33.1539 55.1519 33.5212 55.1519 33.9022C53.0836 33.7797 52.385 33.045 52.385 31.0586C52.385 29.8749 52.3713 28.7048 52.3713 27.5211C52.3713 27.4803 52.3439 27.4395 52.3028 27.3306C51.9056 27.3306 51.481 27.3306 51.0564 27.3306C51.0975 26.3646 51.166 26.2966 52.385 26.1878C52.385 25.7116 52.4261 25.2081 52.3713 24.7183C52.3165 24.1469 52.4261 23.7523 53.0973 23.6843C53.248 23.6707 53.3849 23.5755 53.6178 23.4802C53.6041 24.419 53.6041 25.2898 53.6041 26.2422Z" fill="white"/>
<path d="M38.4001 30.0653C38.3864 27.9428 36.7016 26.2829 34.5237 26.2557C32.3322 26.2421 30.5515 27.9836 30.5789 30.1605C30.6063 32.2694 32.2637 33.9429 34.5237 33.9293C36.7838 33.9157 38.4959 32.2558 38.4001 30.0653ZM34.4826 32.7728C32.7842 32.732 31.8939 31.5075 31.8528 30.1333C31.8117 28.8 32.8664 27.4122 34.4963 27.453C36.0167 27.4938 37.1536 28.5959 37.1536 30.1197C37.1536 31.5891 35.9619 32.8 34.4826 32.7728Z" fill="white"/>
<defs>
<clipPath id="clip0">
<rect width="23.4258" height="17.3525" fill="white" transform="translate(0.0324707 0.781006)"/>
</clipPath>
</defs>
</svg>
