<?xml version="1.0" encoding="UTF-8" standalone="no"?>
<svg
   xmlns:dc="http://purl.org/dc/elements/1.1/"
   xmlns:cc="http://creativecommons.org/ns#"
   xmlns:rdf="http://www.w3.org/1999/02/22-rdf-syntax-ns#"
   xmlns:svg="http://www.w3.org/2000/svg"
   xmlns="http://www.w3.org/2000/svg"
   xmlns:sodipodi="http://sodipodi.sourceforge.net/DTD/sodipodi-0.dtd"
   xmlns:inkscape="http://www.inkscape.org/namespaces/inkscape"
   width="40.052429"
   height="36.453793"
   viewBox="0 0 40.052429 36.453793"
   fill="none"
   version="1.1"
   id="svg25"
   sodipodi:docname="logoUmbrellaOnly.svg"
   inkscape:version="1.0.2 (e86c870879, 2021-01-15)">
  <metadata
     id="metadata29">
    <rdf:RDF>
      <cc:Work
         rdf:about="">
        <dc:format>image/svg+xml</dc:format>
        <dc:type
           rdf:resource="http://purl.org/dc/dcmitype/StillImage" />
        <dc:title></dc:title>
      </cc:Work>
    </rdf:RDF>
  </metadata>
  <sodipodi:namedview
     pagecolor="#ffffff"
     bordercolor="#666666"
     borderopacity="1"
     objecttolerance="10"
     gridtolerance="10"
     guidetolerance="10"
     inkscape:pageopacity="0"
     inkscape:pageshadow="2"
     inkscape:window-width="1694"
     inkscape:window-height="1402"
     id="namedview27"
     showgrid="false"
     inkscape:pagecheckerboard="true"
     fit-margin-top="0"
     fit-margin-left="0"
     fit-margin-right="0"
     fit-margin-bottom="0"
     inkscape:zoom="13.29575"
     inkscape:cx="32.691563"
     inkscape:cy="28.016096"
     inkscape:window-x="1920"
     inkscape:window-y="36"
     inkscape:window-maximized="0"
     inkscape:current-layer="svg25" />
  <g
     opacity="0.4"
     clip-path="url(#clip0)"
     id="g4"
     transform="translate(-0.0324707,-0.781006)">
    <path
       d="M 23.1172,4.16587 C 22.3644,3.07337 21.2711,2.83666 20.0523,2.96412 19.6042,3.01875 19.2995,2.9095 18.9769,2.54533 17.31,0.688091 14.8545,0.251093 12.6858,1.43463 12.2915,1.65313 12.0405,1.63492 11.6641,1.47105 8.6351,0.0508026 5.26551,1.17971 3.47317,4.0202 2.52324,5.53148 2.23646,7.1156 2.32608,8.82718 2.344,9.37342 2.25439,9.70117 1.75253,10.0653 c -2.186646,1.6024 -2.31211,5.2804 -0.25092,7.0648 0.91409,0.8012 2.00741,1.1836 3.2262,0.9287 0.89617,-0.1821 1.68479,-0.6009 1.88195,-1.657 0.59147,-0.8922 1.11125,-1.839 1.79234,-2.6584 2.6347,-3.1136 5.8251,-5.49889 9.5531,-7.10121 1.5594,-0.67371 3.1904,-1.11071 4.7856,-1.67516 0.2509,0 0.6094,0.10925 0.699,-0.20029 0.0538,-0.14567 -0.1792,-0.40058 -0.3226,-0.60087 z"
       fill="#ffffff"
       id="path2" />
  </g>
  <path
     d="m 25.492229,36.453794 c -1.5204,-0.4354 -1.767,-1.6599 -1.9039,-2.9796 -0.3425,-3.0477 -0.726,-6.0954 -1.0958,-9.143 -0.274,-2.1906 -0.5753,-4.3811 -0.7945,-6.5852 -0.0684,-0.7075 -0.4657,-0.9932 -1.0272,-1.1837 -2.3834,-0.7755 -4.6023,-0.4354 -6.6706,0.9796 -0.2055,0.1497 -0.6027,0.2177 -0.8355,0.1225 -2.4382,-1.0477 -6.4377497,0.0952 -7.7800797,2.449 -0.0137,0.0272 -0.06848,0.0408 -0.10958,0.068 -0.35612,-3.1837 0.68487,-5.9593 2.57509,-8.4491 2.7942697,-3.68712 6.6157697,-5.796 11.0262697,-6.96609 0.3698,-0.09524 0.7397,-0.20408 1.1369,-0.31293 0,-0.80273 -0.3561,-1.80955 1.041,-1.85037 0.0685,0.48981 0.1506,1.00682 0.2465,1.63268 0.5753,-0.05442 1.1506,-0.12245 1.7396,-0.14966 3.6024,-0.19048 7.0815,0.32653 10.3003,2.00003 3.26,1.70071 5.6159,4.16334 6.5747,7.79604 0.0411,0.1497 0.0548,0.3129 0.0822,0.4626 0.0274,0.1497 0.0411,0.3129 0.0548,0.3129 -0.7945,-0.3537 -1.6163,-0.8979 -2.5203,-1.0884 -2.2875,-0.4762 -4.4242,-0.0681 -6.246,1.5238 -0.1507,0.1361 -0.5068,0.1905 -0.6848,0.1089 -2.6847,-1.1021 -5.1091,-0.6259 -7.3418,1.1156 -0.2054,0.1633 -0.3835,0.5306 -0.3561,0.7892 0.1644,1.6598 0.3972,3.3197 0.6027,4.966 0.3013,2.4626 0.589,4.9253 0.8903,7.3879 0.1918,1.5238 0.3698,3.0477 0.5753,4.5715 0.137,0.966 0.5205,1.2245 1.5615,1.1837 0.9725,-0.0408 1.356,-0.4354 1.4656,-1.5783 0.3835,-0.0272 0.7807,-0.0544 1.1642,-0.0816 0.4521,1.1293 -0.4109,2.4626 -1.7395,2.7347 -0.1507,0.0273 -0.2876,0.0953 -0.4246,0.1361 -0.5068,0.0272 -0.9999,0.0272 -1.5067,0.0272 z"
     fill="#ffffff"
     id="path8" />
  <defs
     id="defs23">
    <clipPath
       id="clip0">
      <rect
         width="23.4258"
         height="17.352501"
         fill="#ffffff"
         transform="translate(0.0324707,0.781006)"
         id="rect20"
         x="0"
         y="0" />
    </clipPath>
  </defs>
</svg>
