<svg width="55" height="24" viewBox="0 0 55 24" fill="none" xmlns="http://www.w3.org/2000/svg">
<g clip-path="url(#clip0)">
<path d="M10.0558 3.0942C9.4113 3.90485 8.38005 4.54424 7.3488 4.4529C7.2199 3.3568 7.72478 2.1922 8.3156 1.47288C8.96013 0.639391 10.0881 0.0456708 11.0011 0C11.1086 1.14177 10.6896 2.2607 10.0558 3.0942ZM10.9904 4.66984C9.49724 4.5785 8.21892 5.57184 7.50994 5.57184C6.79021 5.57184 5.70525 4.71551 4.52361 4.73834C2.98747 4.76118 1.55876 5.68601 0.774583 7.1589C-0.836745 10.1047 0.355638 14.4662 1.91326 16.8639C2.67595 18.0514 3.58904 19.353 4.79216 19.3073C5.93083 19.2617 6.382 18.5195 7.75701 18.5195C9.14275 18.5195 9.54021 19.3073 10.7433 19.2845C11.9894 19.2617 12.7736 18.0971 13.5363 16.9096C14.4064 15.5623 14.7609 14.2493 14.7824 14.1808C14.7609 14.1579 12.3761 13.1874 12.3547 10.2645C12.3332 7.82112 14.2345 6.65652 14.3205 6.58801C13.2463 4.89819 11.5705 4.71551 10.9904 4.66984ZM19.6164 1.35871V19.1589H22.216V13.0733H25.8146C29.1017 13.0733 31.4113 10.6755 31.4113 7.20457C31.4113 3.73359 29.1447 1.35871 25.9006 1.35871H19.6164ZM22.216 3.68792H25.2131C27.4689 3.68792 28.758 4.9667 28.758 7.21598C28.758 9.46527 27.4689 10.7555 25.2023 10.7555H22.216V3.68792ZM36.1594 19.2959C37.7922 19.2959 39.3068 18.4167 39.9943 17.0238H40.048V19.1589H42.4543V10.2988C42.4543 7.72978 40.5207 6.07421 37.5451 6.07421C34.7844 6.07421 32.7433 7.75262 32.6681 10.059H35.0099C35.2033 8.96289 36.1594 8.24358 37.4699 8.24358C39.0597 8.24358 39.9513 9.0314 39.9513 10.4814V11.4634L36.7072 11.6689C33.6886 11.863 32.0558 13.176 32.0558 15.4596C32.0558 17.7659 33.7424 19.2959 36.1594 19.2959ZM36.8576 17.1836C35.4719 17.1836 34.591 16.4757 34.591 15.3911C34.591 14.2721 35.4396 13.6213 37.0617 13.5186L39.9513 13.3245V14.3292C39.9513 15.9962 38.6193 17.1836 36.8576 17.1836ZM45.6662 24C48.2013 24 49.3937 22.9724 50.4357 19.8554L55.0011 6.24548H52.3586L49.297 16.7612H49.2433L46.1818 6.24548H43.464L47.8683 19.2046L47.632 19.9924C47.2345 21.3283 46.59 21.8421 45.4406 21.8421C45.2365 21.8421 44.839 21.8192 44.6779 21.7964V23.9315C44.8283 23.9772 45.4728 24 45.6662 24Z" fill="white"/>
</g>
<defs>
<clipPath id="clip0">
<rect width="55" height="24" fill="white"/>
</clipPath>
</defs>
</svg>
